<svg width="1024" height="1024" viewBox="0 0 1024 1024" fill="none" xmlns="http://www.w3.org/2000/svg">
<rect width="1024" height="1024" rx="512" fill="#18191A"/>
<path d="M489.421 581.799L489.481 581.86C498.131 590.718 509.917 593.466 520.72 590.312C531.301 587.224 539.893 578.858 544.18 567.563L489.421 581.799ZM489.421 581.799L489.362 581.736M489.421 581.799L489.362 581.736M489.362 581.736C486.874 579.118 484.513 575.158 482.623 571.671C480.527 567.805 478.288 563.139 476.156 558.188C463.68 529.461 444.669 496.748 424.675 469.92C389.471 422.687 349.138 385.75 298.372 353.768C292.577 350.119 282.7 344.413 275.004 340.248V449.835C275.004 505.398 275.07 538.398 275.361 558.986C275.654 579.749 276.179 587.22 276.94 592.165L276.948 592.217L276.956 592.27C292.286 697.854 373.298 778.879 479.034 794.338L479.07 794.343L479.106 794.348C495.803 796.889 528.483 796.891 545.328 794.346L545.363 794.341L545.399 794.336C650.989 779.004 732.133 697.86 747.465 592.27L747.473 592.217L747.481 592.165C748.241 587.22 748.766 579.749 749.06 558.986C749.351 538.398 749.416 505.398 749.416 449.835V340.309C674.623 380.453 611.866 441.969 568.581 517.685L568.57 517.705M489.362 581.736L568.57 517.705M568.57 517.705L568.558 517.725M568.57 517.705L568.558 517.725M568.558 517.725C560.477 531.741 548.051 557.402 544.181 567.561L568.558 517.725ZM233.655 256.916L233.838 256.871L234.022 256.832C238.681 255.841 243.07 255.687 248.542 256.906C253.31 257.968 258.822 260.068 265.844 262.966L265.865 262.975L265.886 262.984C313.409 282.807 360.573 312.567 403.831 350.028L443.947 310.02L443.948 310.019L446.677 307.296C471.154 282.876 484.544 269.518 493.157 262.932C497.782 259.396 502.614 256.516 508.305 255.72C513.383 255.009 517.905 256.253 520.46 256.956C520.631 257.003 520.793 257.048 520.946 257.089C526.95 258.613 532.129 262.948 539.155 269.431C546.956 276.629 559.412 288.959 580.472 310.019C580.476 310.023 580.48 310.027 580.484 310.031L620.585 350.024C663.854 312.432 710.779 282.926 758.786 262.858L758.807 262.849L758.827 262.84C768.061 259.02 776.469 256.019 784.174 256.071C793.498 256.133 799.935 260.468 805.19 265.782C807.677 268.206 810.362 271.008 812.264 274.712C814.24 278.56 814.861 282.377 815.283 285.683C815.456 287.048 815.513 289.381 815.557 291.381C815.611 293.86 815.658 297.227 815.698 301.356C815.778 309.624 815.83 321.086 815.855 334.893C815.904 362.515 815.839 399.609 815.643 439.492C815.448 501.879 815.253 538.674 814.878 561.272C814.506 583.615 813.96 592.808 812.883 599.437C801.968 668.256 774.21 724.923 728.422 771.391L728.418 771.395C679.847 820.644 617.956 851.003 547.779 860.198L547.77 860.199L547.762 860.2C539.861 861.224 525.685 861.669 512.21 861.669C498.735 861.669 484.559 861.224 476.659 860.2L476.648 860.198C372.995 846.667 285.173 784.479 240.356 692.817C221.659 654.743 212.282 618.666 209.582 575.467L209.58 575.435L209.578 575.403C208.836 562.452 208.484 490.95 208.501 422.537C208.509 388.177 208.61 354.373 208.808 328.732C208.906 315.918 209.029 305.107 209.177 297.273C209.251 293.365 209.332 290.14 209.422 287.756C209.466 286.572 209.516 285.519 209.573 284.658L209.578 284.584C209.611 284.084 209.701 282.702 209.991 281.407C211.372 275.252 215.078 269.875 218.753 266.068C222.38 262.309 227.608 258.394 233.655 256.916ZM573.488 397.442L573.546 397.376L573.605 397.312C573.641 397.272 573.677 397.232 573.714 397.192C572.443 395.856 571.02 394.365 569.461 392.737C562.523 385.492 552.997 375.641 542.553 364.938C532.039 354.23 522.426 344.519 515.373 337.499C514.274 336.405 513.242 335.381 512.282 334.432C511.131 335.576 509.883 336.821 508.552 338.153C501.299 345.41 491.699 355.123 482.097 364.903C472.496 374.683 462.92 384.503 455.713 391.972C453.866 393.887 452.182 395.64 450.698 397.192C450.731 397.231 450.765 397.269 450.799 397.307C472.259 421.304 495.843 454.734 512.156 483.638C527.61 456.285 553.249 420.21 573.488 397.442ZM445.483 390.732C445.486 390.736 445.488 390.74 445.491 390.745C445.472 390.713 445.467 390.707 445.483 390.732Z" fill="#A47600" stroke="#A47600" stroke-width="25"/>
</svg>
